<svg xmlns="http://www.w3.org/2000/svg" viewBox="0 0 162.46 145.91"><defs><style>.cls-1{fill:#231f20;}.cls-2,.cls-4,.cls-8{fill:none;}.cls-2{stroke:#231f20;}.cls-2,.cls-4{stroke-width:1.63px;}.cls-3{fill:#fff;}.cls-4{stroke:#fff;}.cls-5{font-size:21.19px;font-family:AdobeSongStd-Light-GBpc-EUC-H, Adobe Song Std;}.cls-6{fill:#0f4464;}.cls-7{fill:#5a90a6;}.cls-8{stroke:#0f4464;stroke-width:6px;}</style></defs><title>Asset 2</title><g id="Layer_2" data-name="Layer 2"><g id="Layer_1-2" data-name="Layer 1"><path class="cls-1" d="M41.12,114.59c3.58.16,7,.32,10.27.32,17.44,0,31.78-5.54,43-16.46Q111,82.07,111,56.4T93.93,15.32C82.36,5.06,66.71,0,46.66,0H1V114.26H34.6c.65,0,2.77.16,6.52.33Zm1.14-36h4.89c17.77,0,26.73-7.34,26.73-22.17,0-13.86-8.8-20.86-26.24-20.86H37.37v72.69H7.05V6H46.66C64.75,6,79.1,10.6,89.53,19.73,99.8,28.85,105,41.08,105,56.4c0,15.48-5.05,28-15,37.81S67.2,108.88,51.39,108.88c-.49,0-3.59-.16-9.13-.32Zm1.47-6.36c-.17-.16-.33-.49-.33-1.3V41.57h4.24c13.53,0,20.21,4.89,20.21,14.83,0,10.76-6.85,16.14-20.7,16.14H44.87a1.9,1.9,0,0,1-1.14-.33Z"/><path class="cls-1" d="M129,.23H86.65V114.49H129ZM92.68,108.46V6.26H123v102.2Z"/><path d="M88.87,17.1,102.27,31l4.62,15.24.46,16.64L105.5,77.16s-3.23,6.93-4.62,6.93-6,6-6,6S88.41,101.19,89.33,98s-.46-80.85-.46-80.85Z"/><path class="cls-2" d="M88.87,17.1,102.27,31l4.62,15.24.46,16.64L105.5,77.16s-3.23,6.93-4.62,6.93-6,6-6,6S88.41,101.19,89.33,98s-.46-80.85-.46-80.85Z"/><polygon points="52.6 1.05 87.14 1.05 87.71 12.36 68.42 4.85 52.6 1.05 52.6 1.05"/><polygon class="cls-2" points="52.6 1.05 87.14 1.05 87.71 12.36 68.42 4.85 52.6 1.05 52.6 1.05"/><polygon points="87.94 101.93 87.94 113.65 59.85 113.65 87.94 101.93 87.94 101.93"/><polygon class="cls-2" points="87.94 101.93 87.94 113.65 59.85 113.65 87.94 101.93 87.94 101.93"/><polygon class="cls-3" points="36.99 79.36 36.99 107.49 42.66 107.49 42.66 79.36 36.99 79.36 36.99 79.36"/><polygon class="cls-4" points="36.99 79.36 36.99 107.49 42.66 107.49 42.66 79.36 36.99 79.36 36.99 79.36"/><text class="cls-5" transform="translate(0 140.53)">Derecho Inteligente</text><polygon class="cls-6" points="86.67 11.94 86.67 12.88 86.67 104.63 92.56 100.23 95.02 97.71 96.95 95.73 98.88 93.4 100.46 91.36 102.28 88.7 103.81 86.09 105 83.88 106.16 81.44 107.21 78.83 107.89 76.85 109.02 73.11 109.65 70.33 110.21 66.98 110.67 64.04 110.89 60.69 111.12 55.16 110.7 49.64 110.21 46.01 109.7 42.78 108.91 39.71 108.04 36.6 107.04 33.93 105.91 31.35 104.83 29.17 103.13 26.34 100.69 22.71 98.48 19.98 96.83 18.17 95.13 16.61 93.04 14.6 90.88 12.84 88.22 10.8 86.67 9.78 86.67 11.94 86.67 11.94"/><path class="cls-6" d="M1.42,0V114.46H59.54l10.48-2,5.81-1.84,5-2.28,3.41-2.11,2.48-1.56V97.12l-5.89,4.25-5.15,2.69-5.21,2s-4.54,1.25-4.65,1.25-4.37.85-4.37.85l-4.48.46-3.85.22-5.16,0-5.67-.23-10.09-.24H7.09V6H41.33L50.18,6l6.91.51,4.42.62,5.84,1.19,4,1.14,5,1.92L79.54,13l3.18,1.76,4,2.61V9.78L82.43,7.29l-4.19-2.1L74.67,3.83,70.13,2.41l-3.51-.85L60.21.23,1.42,0Z"/><polyline class="cls-7" points="7.09 6.19 7.09 44.05 7.09 108.3 53.58 108.74 61.37 108.3 69.74 106.26 75.12 104.2 81.36 101.01 86.67 97.19 86.67 17.46 82.28 14.49 77.25 11.86 71.67 9.78 66.33 8.11 59.6 6.9 52.41 6.19 47.85 5.98 7.09 6.19"/><polygon class="cls-8" points="37.28 35.46 37.28 78.55 49.61 78.55 54.71 77.98 58.82 77.13 62.08 76 64.78 74.58 67.33 72.74 69.45 70.75 70.73 68.91 71.86 66.93 72.71 64.23 73.28 61.91 73.7 58.56 73.7 55.73 73.7 52.75 73.14 50.06 72.14 47.08 70.73 44.39 69.17 42.27 67.18 40.56 64.78 38.86 61.94 37.59 58.68 36.6 54.43 35.89 50.46 35.46 46.49 35.46 40.96 35.46 37.28 35.46 37.28 35.46"/><polygon class="cls-3" points="40.4 38.58 40.4 75.43 49.18 75.43 54.85 74.72 58.26 74.01 61.23 73.02 63.92 71.46 66.05 69.62 67.89 67.78 69.17 65.23 70.16 61.91 70.59 59.27 70.76 55.81 70.76 53.18 70.3 51 69.45 48.56 68.46 46.52 67.41 44.99 66.16 43.68 64.41 42.32 62.85 41.31 60.55 40.28 57.97 39.54 55.9 39.2 53.41 38.81 50.52 38.44 48.25 38.44 40.4 38.58 40.4 38.58"/></g></g></svg>