<svg width="163" height="146" viewBox="0 0 163 146" fill="none" xmlns="http://www.w3.org/2000/svg">
<rect width="163" height="146" fill="#F5F5F5"/>
<path d="M41.12 114.59C44.7 114.75 48.12 114.91 51.39 114.91C68.83 114.91 83.17 109.37 94.39 98.45C105.463 87.53 111 73.5133 111 56.4C111 39.2867 105.31 25.5933 93.93 15.32C82.36 5.06 66.71 0 46.66 0H1V114.26H34.6C35.25 114.26 37.37 114.42 41.12 114.59ZM42.26 78.59H47.15C64.92 78.59 73.88 71.25 73.88 56.42C73.88 42.56 65.08 35.56 47.64 35.56H37.37V108.25H7.05V6H46.66C64.75 6 79.1 10.6 89.53 19.73C99.8 28.85 105 41.08 105 56.4C105 71.88 99.95 84.4 90 94.21C80.05 104.02 67.2 108.88 51.39 108.88C50.9 108.88 47.8 108.72 42.26 108.56V78.59ZM43.73 72.23C43.56 72.07 43.4 71.74 43.4 70.93V41.57H47.64C61.17 41.57 67.85 46.46 67.85 56.4C67.85 67.16 61 72.54 47.15 72.54H44.87C44.4645 72.5545 44.065 72.4389 43.73 72.21V72.23Z" fill="#231F20"/>
<path d="M129 0.229996H86.65V114.49H129V0.229996ZM92.68 108.46V6.26H123V108.46H92.68Z" fill="#231F20"/>
<path d="M88.87 17.1L102.27 31L106.89 46.24L107.35 62.88L105.5 77.16C105.5 77.16 102.27 84.09 100.88 84.09C99.49 84.09 94.88 90.09 94.88 90.09C94.88 90.09 88.41 101.19 89.33 98C90.25 94.81 88.87 17.15 88.87 17.15V17.1Z" fill="black"/>
<path d="M88.87 17.1L102.27 31L106.89 46.24L107.35 62.88L105.5 77.16C105.5 77.16 102.27 84.09 100.88 84.09C99.49 84.09 94.88 90.09 94.88 90.09C94.88 90.09 88.41 101.19 89.33 98C90.25 94.81 88.87 17.15 88.87 17.15V17.1Z" stroke="#231F20" stroke-width="1.63"/>
<path d="M52.6 1.05H87.14L87.71 12.36L68.42 4.85L52.6 1.05Z" fill="black"/>
<path d="M52.6 1.05H87.14L87.71 12.36L68.42 4.85L52.6 1.05Z" stroke="#231F20" stroke-width="1.63"/>
<path d="M87.94 101.93V113.65H59.85L87.94 101.93Z" fill="black"/>
<path d="M87.94 101.93V113.65H59.85L87.94 101.93Z" stroke="#231F20" stroke-width="1.63"/>
<path d="M36.99 79.36V107.49H42.66V79.36H36.99Z" fill="white"/>
<path d="M36.99 79.36V107.49H42.66V79.36H36.99Z" stroke="white" stroke-width="1.63"/>
<path d="M86.67 11.94V12.88V104.63L92.56 100.23L95.02 97.71L96.95 95.73L98.88 93.4L100.46 91.36L102.28 88.7L103.81 86.09L105 83.88L106.16 81.44L107.21 78.83L107.89 76.85L109.02 73.11L109.65 70.33L110.21 66.98L110.67 64.04L110.89 60.69L111.12 55.16L110.7 49.64L110.21 46.01L109.7 42.78L108.91 39.71L108.04 36.6L107.04 33.93L105.91 31.35L104.83 29.17L103.13 26.34L100.69 22.71L98.48 19.98L96.83 18.17L95.13 16.61L93.04 14.6L90.88 12.84L88.22 10.8L86.67 9.78V11.94Z" fill="#0F4464"/>
<path d="M1.42 0V114.46H59.54L70.02 112.46L75.83 110.62L80.83 108.34L84.24 106.23L86.72 104.67V97.12L80.83 101.37L75.68 104.06L70.47 106.06C70.47 106.06 65.93 107.31 65.82 107.31C65.71 107.31 61.45 108.16 61.45 108.16L56.97 108.62L53.12 108.84H47.96L42.29 108.61L32.2 108.37H7.09V6H41.33H50.18L57.09 6.51L61.51 7.13L67.35 8.32L71.35 9.46L76.35 11.38L79.54 13L82.72 14.76L86.72 17.37V9.78L82.43 7.29L78.24 5.19L74.67 3.83L70.13 2.41L66.62 1.56L60.21 0.23L1.42 0Z" fill="#0F4464"/>
<path d="M7.09 6.19V44.05V108.3L53.58 108.74L61.37 108.3L69.74 106.26L75.12 104.2L81.36 101.01L86.67 97.19V17.46L82.28 14.49L77.25 11.86L71.67 9.78L66.33 8.11L59.6 6.9L52.41 6.19L47.85 5.98L7.09 6.19Z" fill="#5A90A6"/>
<path d="M37.28 35.46V78.55H49.61L54.71 77.98L58.82 77.13L62.08 76L64.78 74.58L67.33 72.74L69.45 70.75L70.73 68.91L71.86 66.93L72.71 64.23L73.28 61.91L73.7 58.56V55.73V52.75L73.14 50.06L72.14 47.08L70.73 44.39L69.17 42.27L67.18 40.56L64.78 38.86L61.94 37.59L58.68 36.6L54.43 35.89L50.46 35.46H46.49H40.96H37.28Z" stroke="#0F4464" stroke-width="6"/>
<path d="M40.4 38.58V75.43H49.18L54.85 74.72L58.26 74.01L61.23 73.02L63.92 71.46L66.05 69.62L67.89 67.78L69.17 65.23L70.16 61.91L70.59 59.27L70.76 55.81V53.18L70.3 51L69.45 48.56L68.46 46.52L67.41 44.99L66.16 43.68L64.41 42.32L62.85 41.31L60.55 40.28L57.97 39.54L55.9 39.2L53.41 38.81L50.52 38.44H48.25L40.4 38.58Z" fill="white"/>
</svg>
