<svg width="128" height="118" viewBox="0 0 128 118" fill="none" xmlns="http://www.w3.org/2000/svg">
<rect x="88" y="6" width="38" height="109" fill="#E7EFEF"/>
<path d="M128 3.23H85.65V117.49H128V3.23ZM91.68 111.46V9.26H122V111.46H91.68Z" fill="#231F20"/>
<rect x="32" y="35" width="48" height="51" fill="#E7EFEF"/>
<path d="M14.5 7H4.5L1 14L31.5 41.5L43 39L14.5 7Z" fill="#5D93AC"/>
<path d="M63 6L2 5L37 35V38H57.5L65 42L70.5 47.5L73 58V67L68.5 74.5L63 78L54.5 81L45 82H35.5L34.5 38L2 8L3 115.5H58.5L73 113L83.5 108.5L93.5 100.5L101 89.5L106.5 78L108 60L106.5 46L101 31.5L96.5 24.5L87.5 15.5L74.5 9.5L63 6Z" fill="#5D93AC"/>
<path d="M36.28 38.46V81.55H48.61L53.71 80.98L57.82 80.13L61.08 79L63.78 77.58L66.33 75.74L68.45 73.75L69.73 71.91L70.86 69.93L71.71 67.23L72.28 64.91L72.7 61.56V58.73V55.75L72.14 53.06L71.14 50.08L69.73 47.39L68.17 45.27L66.18 43.56L63.78 41.86L60.94 40.59L57.68 39.6L53.43 38.89L49.46 38.46H45.49H39.96H36.28Z" stroke="#0F4464" stroke-width="6"/>
<path d="M87 15.1862V16.1376V109L92.5407 104.547L94.8548 101.996L96.6703 99.9921L98.4859 97.6339L99.9722 95.5691L101.684 92.8769L103.124 90.2352L104.243 87.9984L105.334 85.5288L106.322 82.8872L106.962 80.8832L108.025 77.0978L108.617 74.2841L109.144 70.8935L109.577 67.9179L109.784 64.5273L110 58.9302L109.605 53.3433L109.144 49.6693L108.664 46.4001L107.921 43.2929L107.103 40.1452L106.162 37.4428L105.099 34.8315L104.083 32.6251L102.484 29.7608L100.189 26.0868L98.1096 23.3237L96.5575 21.4917L94.9583 19.9128L92.9922 17.8784L90.9603 16.0971L88.4581 14.0324L87 13V15.1862Z" fill="#0F4464"/>
<path d="M0 3V118H59.2783L69.9672 115.991L75.893 114.142L80.9926 112L85 110L87 109V100.578L80.9926 104.848L75.74 107.551L70.4261 109.56C70.4261 109.56 65.7957 110.816 65.6835 110.816C65.5713 110.816 61.2264 111.67 61.2264 111.67L56.6571 112.132L52.7304 112.353H47.4675L41.6845 112.122L31.3934 111.881H5.783V9.02831H40.7054H49.7318L56.7795 9.54071L61.2876 10.1636L67.244 11.3593L71.3237 12.5046L76.4233 14.4337L79.6769 16.0613L82.9203 17.8296L87 20.452V13L82.6245 10.3244L78.351 8.21449L74.7098 6.84807L70.0794 5.42137L66.4994 4.56736L59.9617 3.23109L0 3Z" fill="#0F4464"/>
</svg>
