<?xml version="1.0" encoding="iso-8859-1"?>
<!-- Generator: Adobe Illustrator 19.0.0, SVG Export Plug-In . SVG Version: 6.00 Build 0)  -->
<svg version="1.1" id="Capa_1" xmlns="http://www.w3.org/2000/svg" xmlns:xlink="http://www.w3.org/1999/xlink" x="0px" y="0px"
	 viewBox="0 0 60 60" style="enable-background:new 0 0 60 60;" xml:space="preserve">
<g>
	<g>
		<path d="M59,0H1C0.4,0,0,0.4,0,1v30v28c0,0.6,0.4,1,1,1h58c0.6,0,1-0.4,1-1V31V1C60,0.4,59.6,0,59,0z M58,2v28H36.3
			c2.8-2,4.7-5.3,4.7-9V11c0-3.7-1.8-7-4.7-9H58z M58,37H2v-5h56V37z M2,46h56v5H2V46z M2,44v-5h56v5H2z M30,30c-5,0-9-4-9-9V11
			c0-5,4-9,9-9s9,4,9,9v10C39,26,35,30,30,30z M2,2h21.7C20.9,4,19,7.3,19,11v10c0,3.7,1.8,7,4.7,9H2V2z M2,58v-5h56v5H2z"/>
		<path d="M52,12h2V6c0-0.6-0.4-1-1-1h-6v2h5V12z"/>
		<path d="M7,7h5V5H6C5.4,5,5,5.4,5,6v6h2V7z"/>
		<path d="M7,20H5v6c0,0.6,0.4,1,1,1h6v-2H7V20z"/>
		<path d="M52,25h-5v2h6c0.6,0,1-0.4,1-1v-6h-2V25z"/>
		<path d="M29,9h2c1.7,0,3,1.3,3,3h2c0-2.8-2.2-5-5-5V5h-2v2c-2.8,0-5,2.2-5,5s2.2,5,5,5h2c1.7,0,3,1.3,3,3s-1.3,3-3,3h-2
			c-1.7,0-3-1.3-3-3h-2c0,2.8,2.2,5,5,5v2h2v-2c2.8,0,5-2.2,5-5s-2.2-5-5-5h-2c-1.7,0-3-1.3-3-3S27.3,9,29,9z"/>
		<rect x="45" y="15" width="3" height="2"/>
		<rect x="12" y="15" width="3" height="2"/>
	</g>
</g>
<g>
</g>
<g>
</g>
<g>
</g>
<g>
</g>
<g>
</g>
<g>
</g>
<g>
</g>
<g>
</g>
<g>
</g>
<g>
</g>
<g>
</g>
<g>
</g>
<g>
</g>
<g>
</g>
<g>
</g>
</svg>
